<svg width="86.004" height="11.563" viewBox="0 0 22.755 3.059" xml:space="preserve" xmlns="http://www.w3.org/2000/svg">
    <g aria-label="NOMY" style="font-size:6.28682px;line-height:1.1;font-family:Roboto;-inkscape-font-specification:Roboto;text-align:justify;fill:#000;stroke-width:8.1004;stroke-linecap:round">
        <path d="m77.93 198.056-1.9-1.986h-.006q.006.249.013.458.003.089.003.178.003.089.003.165.003.074.003.132v1.038h-.32v-2.849h.24l1.9 1.977-.006-.427q0-.085-.003-.171 0-.09-.003-.17v-1.187h.322v2.842z" style="letter-spacing:-.079375px;fill:#000" transform="translate(-64.679 -195.077)"/>
        <path d="M81.314 196.617q0 .334-.086.604-.083.27-.255.464-.169.19-.424.295-.254.1-.592.1-.347 0-.596-.103-.248-.105-.408-.295-.156-.194-.233-.464-.074-.27-.074-.601 0-.332.077-.596.077-.267.236-.454.163-.187.412-.286.248-.101.589-.101.34 0 .593.101.254.098.423.286.169.187.252.454.086.264.086.596zm-.577 0q0-.258-.046-.464-.043-.206-.139-.347-.095-.144-.242-.218-.147-.076-.35-.076-.178 0-.331.04-.154.036-.243.107-.089.07-.132.31-.04.24-.04.648 0 .254.037.463.037.206.123.356t.227.234q.144.08.356.08.218 0 .36-.04.14-.04.239-.108.046-.03.08-.123.033-.092.055-.224.024-.135.033-.298.013-.165.013-.34zM84.51 198.041l-.219-2.158-.97 2.158h-.166l-1.013-2.158-.184 2.158h-.316l.273-2.849h.513l.942 2.005.897-2.005h.5l.298 2.849z" style="letter-spacing:-.132292px;fill:#000" transform="translate(-64.679 -195.077)"/>
        <path d="M86.556 198.041h-.55v-1.087l-.877-1.743h.626l.66 1.387.688-1.387h.331l-.878 1.743z" style="font-family:MoolBoran;-inkscape-font-specification:MoolBoran;fill:#000;stroke-width:8.10041" transform="translate(-64.679 -195.077)"/>
    </g>
    <path d="M64.679 198.041v-2.83h.546v2.532h1.023l-.028.298z" style="font-size:6.28682px;line-height:1.1;font-family:Roboto;-inkscape-font-specification:Roboto;text-align:justify;letter-spacing:-.132292px;fill:#000;stroke-width:8.1004;stroke-linecap:round" transform="translate(-64.679 -195.077)"/>
    <path d="M68.138 198.041H66.52v-2.83h1.563l-.028.288-.988.013v.92l.93.013-.025.26-.905.022v1.013l1.096.022z" style="font-size:6.28682px;line-height:1.1;font-family:Roboto;-inkscape-font-specification:Roboto;text-align:justify;letter-spacing:-.0529167px;fill:#000;stroke-width:8.1004;stroke-linecap:round" transform="translate(-64.679 -195.077)"/>
    <path d="m69.675 196.436.992 1.605h-.617l-.7-1.173-.737 1.173h-.359l.943-1.4-.872-1.43h.614l.577.991.617-.991h.356zM73.439 196.617q0 .334-.086.604-.083.27-.255.464-.169.19-.424.295-.255.1-.592.1-.347 0-.596-.103-.248-.105-.408-.295-.157-.194-.233-.464-.074-.27-.074-.601 0-.332.077-.596.077-.267.236-.454.163-.187.411-.286.25-.101.59-.101.34 0 .592.101.255.099.424.286.169.187.252.454.086.264.086.596zm-.577 0q0-.258-.047-.464-.043-.206-.138-.347-.095-.144-.242-.218-.148-.076-.35-.076-.178 0-.332.04-.153.036-.242.107-.09.07-.132.31-.04.24-.04.648 0 .254.037.463.037.206.123.356.085.15.227.234.144.08.356.08.218 0 .359-.04t.24-.108q.045-.03.08-.123.033-.092.054-.224.025-.135.034-.298.013-.165.013-.34z" style="font-size:6.28682px;line-height:1.1;font-family:Roboto;-inkscape-font-specification:Roboto;text-align:justify;letter-spacing:-.132292px;fill:#000;stroke-width:8.1004;stroke-linecap:round" transform="translate(-64.679 -195.077)"/>
    <path style="fill:#a00;stroke-width:5.61649;stroke-linecap:round" d="M53.528 193.624a.565.565 0 0 1-.565.566.565.565 0 0 1-.566-.566.565.565 0 0 1 .566-.565.565.565 0 0 1 .565.565zM53.553 195.002a.565.565 0 0 1-.566.566.565.565 0 0 1-.565-.566.565.565 0 0 1 .565-.565.565.565 0 0 1 .566.565z" transform="matrix(1.21946 0 0 1.21946 -54.74 -235.428)"/>
</svg>
