<?xml version="1.0" encoding="UTF-8" standalone="no"?>
<!-- Created with Inkscape (http://www.inkscape.org/) -->

<svg
   width="67.564186mm"
   height="33.044945mm"
   viewBox="0 0 67.564186 33.044945"
   version="1.1"
   id="svg1945"
   xmlns="http://www.w3.org/2000/svg"
   xmlns:svg="http://www.w3.org/2000/svg">
  <defs
     id="defs12" />
  <path
     d="m 61.529736,30.48237 c 0,0 4.139494,-2.986616 4.244269,-7.649985 0,-0.733072 0.300919,-5.186892 -5.20065,-7.544858 C 60.521145,15.235667 60.606515,2.4308941 47.841253,2.280258 47.51952,2.293311 40.008528,2.0668274 36.95559,8.5283049 c 0,-0.1044222 -3.129845,-1.9293416 -6.012745,-1.7296694 -0.0254,-0.016228 -5.107869,-0.12065 -8.815563,5.2408665 0.105128,0.104069 -6.496755,-0.786342 -7.911394,5.291666 0,0 -0.576439,-6.863291 7.43973,-7.178322 0,0.05186 3.301294,-5.3967937 9.27488,-5.3445826 0.542925,0.025753 1.781528,-0.20955 5.501922,1.414286 0.05221,0.1044223 3.890433,-6.67067463 13.164255,-6.19901076 0.419453,0.10406944 11.723863,0.38346942 12.457641,13.58723536 0.05221,0 6.182078,2.672292 5.449005,9.063919 -0.314677,1.205794 -1.2573,5.764741 -5.973585,7.807677"
     style="fill:#ffffff;fill-opacity:1;fill-rule:nonzero;stroke:none;stroke-width:0.352778"
     id="path765"
     clip-path="url(#clipPath608)" />
  <path
     d="m 4.7445106,30.950507 c 1.2354277,0 2.2634221,-0.160867 3.084336,-0.482953 0.820561,-0.321734 1.4717888,-0.753181 1.9543887,-1.295047 0.4822477,-0.54222 0.8205607,-1.16452 1.0152947,-1.867253 0.19438,-0.703086 0.2921,-1.435806 0.2921,-2.197806 0,-0.761999 -0.09772,-1.494366 -0.2921,-2.197099 C 10.603796,22.207263 10.265483,21.584963 9.7832353,21.043096 9.3006354,20.500876 8.6494076,20.069077 7.8288466,19.747343 7.0079327,19.42561 5.9799383,19.264743 4.7445106,19.264743 H 2.0284746 V 30.950507 Z M 2.50464e-6,17.478629 H 4.7240495 c 1.4731999,0 2.7470804,0.199673 3.822347,0.597606 1.0752666,0.398286 1.9557995,0.945092 2.6415995,1.640417 0.685448,0.695324 1.1938,1.504597 1.523648,2.428522 0.3302,0.923925 0.495652,1.911702 0.495652,2.962274 0,1.051278 -0.165452,2.03835 -0.495652,2.962628 -0.329848,0.923925 -0.8382,1.73355 -1.523648,2.428522 -0.6858,0.695325 -1.5663329,1.242131 -2.6415995,1.640417 -1.0752666,0.398286 -2.3491471,0.597253 -3.822347,0.597253 H 2.50464e-6 Z"
     style="fill:#ffffff;fill-opacity:1;fill-rule:nonzero;stroke:none;stroke-width:0.352778"
     id="path767"
     clip-path="url(#clipPath588)" />
  <path
     d="m 20.487218,31.501545 c 0.524581,0 1.014942,-0.09737 1.471789,-0.292805 0.456847,-0.195439 0.858661,-0.475897 1.205442,-0.841022 0.347133,-0.365125 0.617713,-0.811389 0.812447,-1.337734 0.19438,-0.526344 0.291747,-1.120775 0.291747,-1.783644 0,-0.662517 -0.09737,-1.2573 -0.291747,-1.783644 -0.194734,-0.526345 -0.465314,-0.972609 -0.812447,-1.337734 -0.346781,-0.365125 -0.748595,-0.645583 -1.205442,-0.841022 -0.456847,-0.195439 -0.947208,-0.293158 -1.471789,-0.293158 -0.52458,0 -1.015294,0.09772 -1.471789,0.293158 -0.456847,0.195439 -0.854427,0.475897 -1.192741,0.841022 -0.338314,0.365125 -0.609247,0.811389 -0.812095,1.337734 -0.2032,0.526344 -0.304447,1.121127 -0.304447,1.783644 0,0.662869 0.101247,1.2573 0.304447,1.783644 0.202848,0.526345 0.473781,0.972609 0.812095,1.337734 0.338314,0.365125 0.735894,0.645583 1.192741,0.841022 0.456495,0.195439 0.947209,0.292805 1.471789,0.292805 m -0.486833,1.543403 c -0.762706,0 -1.461206,-0.152753 -2.096558,-0.457905 -0.635353,-0.305153 -1.186039,-0.720373 -1.651706,-1.246011 -0.466019,-0.525639 -0.830086,-1.140178 -1.092553,-1.84397 -0.262466,-0.703439 -0.3937,-1.453797 -0.3937,-2.250722 0,-0.796925 0.130881,-1.547283 0.393348,-2.250722 0.262466,-0.703439 0.62618,-1.318331 1.091847,-1.843969 0.465314,-0.525639 1.015294,-0.941211 1.650294,-1.246364 0.634647,-0.305153 1.333147,-0.457906 2.095147,-0.457906 0.914047,0 1.747661,0.203553 2.500842,0.610659 0.752828,0.407105 1.358194,0.966611 1.815394,1.678163 l 0.07691,-1.983669 h 1.686983 v 10.987263 h -1.675694 l -0.08114,-1.983669 c -0.457553,0.711905 -1.063272,1.271411 -1.817159,1.678517 -0.753533,0.406752 -1.588205,0.610305 -2.502252,0.610305"
     style="fill:#ffffff;fill-opacity:1;fill-rule:nonzero;stroke:none;stroke-width:0.352778"
     id="path769"
     clip-path="url(#clipPath568)" />
  <path
     d="m 28.977168,21.752532 h 1.675694 l 0.127,2.110317 c 0.4064,-0.660753 0.986014,-1.228725 1.7399,-1.703211 0.753533,-0.474839 1.595614,-0.712259 2.5273,-0.712259 0.72778,0 1.345847,0.118886 1.853847,0.355953 0.507647,0.237419 0.91828,0.567972 1.2319,0.991658 0.313267,0.424039 0.53728,0.928159 0.6731,1.513064 0.135467,0.584906 0.2032,1.216025 0.2032,1.894064 v 6.53415 h -1.940278 v -6.355645 c 0,-1.237191 -0.223661,-2.09303 -0.670983,-2.567869 -0.447322,-0.474486 -1.075972,-0.711553 -1.88595,-0.711553 -0.388056,0 -0.793397,0.08043 -1.214967,0.2413 -0.421922,0.16122 -0.81033,0.381353 -1.164519,0.661106 -0.354542,0.279753 -0.645583,0.614186 -0.873125,1.004358 -0.228247,0.38982 -0.341842,0.805039 -0.341842,1.245306 v 6.482997 h -1.940277 z"
     style="fill:#ffffff;fill-opacity:1;fill-rule:nonzero;stroke:none;stroke-width:0.352778"
     id="path771"
     clip-path="url(#clipPath548)" />
  <path
     d="M 43.18882,23.078976 H 40.722903 V 21.75606 h 2.465917 v -2.998611 h 1.940277 v 2.998611 h 2.49167 v 1.322916 h -2.49167 v 9.657292 H 43.18882 Z"
     style="fill:#ffffff;fill-opacity:1;fill-rule:nonzero;stroke:none;stroke-width:0.352778"
     id="path773"
     clip-path="url(#clipPath528)" />
  <path
     d="m 56.891414,25.614743 c 0.05045,-0.373239 0.02081,-0.720725 -0.08925,-1.043164 -0.11042,-0.322439 -0.283986,-0.601839 -0.521406,-0.839258 -0.237419,-0.23742 -0.537986,-0.424039 -0.902405,-0.559859 -0.364772,-0.135819 -0.775406,-0.203552 -1.232606,-0.203552 -0.779639,0 -1.48343,0.212019 -2.110316,0.635705 -0.626886,0.424039 -1.025173,1.094317 -1.194859,2.010128 z m -2.616906,7.430205 c -0.813858,0 -1.555044,-0.148519 -2.224616,-0.445205 C 51.380319,32.303409 50.800706,31.896304 50.31105,31.379132 49.821747,30.862312 49.442158,30.24354 49.172636,29.522815 48.902761,28.80209 48.768,28.017865 48.768,27.17014 c 0,-0.881592 0.151694,-1.674283 0.455083,-2.378075 0.303389,-0.703791 0.699911,-1.30563 1.18992,-1.805869 0.489655,-0.500239 1.052336,-0.881592 1.688041,-1.144411 0.635,-0.26282 1.292225,-0.394406 1.970264,-0.394406 0.694267,0 1.325739,0.106186 1.893711,0.317853 0.56762,0.211314 1.059039,0.507647 1.474258,0.888647 0.41522,0.381 0.737306,0.830086 0.966259,1.3462 0.2286,0.51682 0.3429,1.088319 0.3429,1.714853 0,0.186266 -0.01693,0.3937 -0.0508,0.6223 -0.03387,0.228953 -0.06773,0.436386 -0.101248,0.6223 h -7.932207 c -0.03351,0.474486 0.0042,0.978605 0.114652,1.512005 0.110067,0.533753 0.325967,1.020939 0.648406,1.461206 0.321733,0.440619 0.766586,0.804686 1.334558,1.092905 0.567619,0.287867 1.292225,0.4318 2.173817,0.4318 0.626886,0 1.279172,-0.135466 1.957211,-0.4064 0.678038,-0.271286 1.228725,-0.610305 1.652411,-1.017058 v 1.705328 c -0.525639,0.426861 -1.165225,0.751063 -1.919464,0.972961 -0.754239,0.221897 -1.538111,0.332669 -2.351264,0.332669"
     style="fill:#ffffff;fill-opacity:1;fill-rule:nonzero;stroke:none;stroke-width:0.352778"
     id="path775"
     clip-path="url(#clipPath508)" />
</svg>
