<?xml version="1.0" encoding="UTF-8" standalone="no"?>
<!-- Created with Inkscape (http://www.inkscape.org/) -->

<svg
   width="165.40759mm"
   height="84.134079mm"
   viewBox="0 0 165.40759 84.134079"
   version="1.1"
   id="svg5"
   xmlns="http://www.w3.org/2000/svg"
   xmlns:svg="http://www.w3.org/2000/svg">
  <defs
     id="defs2" />
  <g
     id="layer1"
     transform="translate(-20.08833,-126.21919)">
    <g
       aria-label="D"
       id="text1382"
       style="font-size:75.4516px;-inkscape-font-specification:'sans-serif, Normal';text-align:justify;fill:#d38d5f;stroke-width:4.67858;stroke-dasharray:18.7144, 4.67858"
       transform="matrix(0.61600115,0,0,0.61600115,-144.77999,-9.9289019)" />
    <g
       id="path1386"
       transform="matrix(0.61600115,0,0,0.61600115,-144.77999,-9.9289019)" />
    <g
       id="path1390"
       transform="matrix(0.61600115,0,0,0.61600115,-144.77999,-9.9289019)" />
    <g
       id="path1394"
       transform="matrix(0.61600115,0,0,0.61600115,-144.77999,-9.9289019)" />
    <path
       d="m 20.08833,146.1169 q 0,-5.25839 1.956118,-8.01377 1.97715,-2.75539 5.65802,-2.75539 3.2602,0 5.090111,2.65022 v -11.77877 h 3.722936 v 32.30748 h -3.407434 l -0.189305,-2.43988 q -1.829916,2.86055 -5.237345,2.86055 -3.533626,0 -5.552847,-2.73436 -1.998183,-2.75538 -2.040254,-7.76136 z m 3.722931,2.12438 q 0,3.82811 1.135814,5.63698 1.135815,1.78786 3.701903,1.78786 2.776421,0 4.143601,-2.79747 V 141.38436 Q 31.362301,138.65 28.670006,138.65 q -2.566083,0 -3.701898,1.80888 -1.135805,1.78784 -1.156847,5.51078 z"
       style="font-size:40.7816px;line-height:1;font-family:'Roboto Condensed';-inkscape-font-specification:'Roboto Condensed, Normal';text-align:end;text-anchor:end;fill:#297f76;fill-opacity:1;stroke-width:1.61538"
       id="path7412" />
    <path
       d="M 46.254033,158.52667 H 42.531102 V 135.7684 h 3.722931 z m 0.294469,-28.79489 q 0,0.94651 -0.525835,1.57752 -0.525844,0.63101 -1.598545,0.63101 -1.051684,0 -1.577518,-0.63101 -0.525839,-0.63101 -0.525839,-1.57752 0,-0.94651 0.525839,-1.59855 0.525834,-0.65203 1.577518,-0.65203 1.051668,0 1.577503,0.67307 0.546877,0.65204 0.546877,1.57751 z"
       style="font-size:40.7816px;line-height:1;font-family:'Roboto Condensed';-inkscape-font-specification:'Roboto Condensed, Normal';text-align:end;text-anchor:end;fill:#297f76;fill-opacity:1;stroke-width:1.61538"
       id="path7414" />
    <path
       d="m 60.009959,155.77128 q 1.85094,0 2.96573,-1.1358 1.11477,-1.15685 1.21993,-3.28123 h 3.51261 q -0.12621,3.28123 -2.33473,5.44768 -2.18749,2.14541 -5.36354,2.14541 -4.227741,0 -6.457299,-2.65021 -2.208511,-2.67127 -2.208511,-7.92964 v -2.50299 q 0,-5.15322 2.208511,-7.82447 2.208516,-2.69229 6.436249,-2.69229 3.49157,0 5.53183,2.20852 2.06128,2.20851 2.18749,6.03662 h -3.51261 q -0.12619,-2.52403 -1.21993,-3.78604 -1.07272,-1.262 -2.98678,-1.262 -2.481948,0 -3.680856,1.6406 -1.198913,1.61958 -1.240974,5.34252 v 2.90262 q 0,4.01741 1.177875,5.67906 1.198913,1.66164 3.765005,1.66164 z"
       style="font-size:40.7816px;line-height:1;font-family:'Roboto Condensed';-inkscape-font-specification:'Roboto Condensed, Normal';text-align:end;text-anchor:end;fill:#297f76;fill-opacity:1;stroke-width:1.61538"
       id="path7416" />
    <path
       d="m 76.878839,130.25763 v 5.51077 h 3.42846 v 3.0078 h -3.42846 v 14.11349 q 0,1.34614 0.4417,2.04026 0.44171,0.6941 1.51442,0.6941 0.73617,0 1.49337,-0.2524 l -0.042,3.15502 q -1.26201,0.42067 -2.58712,0.42067 -2.20851,0 -3.36536,-1.57751 -1.15684,-1.57751 -1.15684,-4.45911 V 138.7762 h -3.47054 v -3.0078 h 3.47054 v -5.51077 z"
       style="font-size:40.7816px;line-height:1;font-family:'Roboto Condensed';-inkscape-font-specification:'Roboto Condensed, Normal';text-align:end;text-anchor:end;fill:#297f76;fill-opacity:1;stroke-width:1.61538"
       id="path7418" />
    <path
       d="m 88.741739,158.52667 h -3.72294 V 135.7684 h 3.72294 z m 0.29447,-28.79489 q 0,0.94651 -0.52585,1.57752 -0.52583,0.63101 -1.59854,0.63101 -1.05167,0 -1.57751,-0.63101 -0.52583,-0.63101 -0.52583,-1.57752 0,-0.94651 0.52583,-1.59855 0.52584,-0.65203 1.57751,-0.65203 1.05168,0 1.57752,0.67307 0.54687,0.65204 0.54687,1.57751 z"
       style="font-size:40.7816px;line-height:1;font-family:'Roboto Condensed';-inkscape-font-specification:'Roboto Condensed, Normal';text-align:end;text-anchor:end;fill:#297f76;fill-opacity:1;stroke-width:1.61538"
       id="path7420" />
    <path
       d="m 93.810819,146.09586 q 0,-4.96391 2.39782,-7.84549 2.41886,-2.90263 6.373161,-2.90263 3.9543,0 6.35213,2.81848 2.41885,2.8185 2.48195,7.67724 v 2.39782 q 0,4.94288 -2.39782,7.82447 -2.39782,2.88159 -6.39419,2.88159 -3.954311,0 -6.352131,-2.79745 -2.37678,-2.79746 -2.46092,-7.57207 z m 3.72293,2.14542 q 0,3.5126 1.36719,5.53182 1.388211,1.99818 3.722931,1.99818 4.92183,0 5.06907,-7.10932 v -2.5661 q 0,-3.49156 -1.38821,-5.51078 -1.38821,-2.04024 -3.72293,-2.04024 -2.29265,0 -3.680861,2.04024 -1.36719,2.01922 -1.36719,5.48975 z"
       style="font-size:40.7816px;line-height:1;font-family:'Roboto Condensed';-inkscape-font-specification:'Roboto Condensed, Normal';text-align:end;text-anchor:end;fill:#297f76;fill-opacity:1;stroke-width:1.61538"
       id="path7422" />
    <path
       d="m 119.72412,135.7684 0.10521,2.46092 q 2.16645,-2.88158 5.53181,-2.88158 6.03662,0 6.12075,8.05583 v 15.1231 H 127.78 v -14.95483 q 0,-2.67125 -0.90445,-3.78603 -0.8834,-1.13581 -2.67126,-1.13581 -1.38821,0 -2.50298,0.92548 -1.09374,0.92546 -1.76681,2.41885 v 16.53234 h -3.72295 V 135.7684 Z"
       style="font-size:40.7816px;line-height:1;font-family:'Roboto Condensed';-inkscape-font-specification:'Roboto Condensed, Normal';text-align:end;text-anchor:end;fill:#297f76;fill-opacity:1;stroke-width:1.61538"
       id="path7424" />
    <path
       d="m 148.7714,158.52667 q -0.33653,-0.73617 -0.48377,-2.48195 -1.97714,2.90262 -5.04804,2.90262 -3.09193,0 -4.83771,-1.72475 -1.72474,-1.74578 -1.72474,-4.9008 0,-3.47054 2.35575,-5.51079 2.35575,-2.04025 6.45729,-2.08231 h 2.73435 v -2.41886 q 0,-2.04025 -0.90444,-2.90263 -0.90445,-0.86236 -2.75539,-0.86236 -1.68268,0 -2.73436,1.00959 -1.05167,0.98858 -1.05167,2.52403 h -3.72293 q 0,-1.74578 1.03064,-3.3233 1.03064,-1.59854 2.77642,-2.50299 1.74578,-0.90443 3.89121,-0.90443 3.49156,0 5.30043,1.74578 1.82993,1.72474 1.87199,5.04804 v 11.4843 q 0.021,2.62919 0.71514,4.56428 v 0.33653 z m -4.9639,-2.96573 q 1.36717,0 2.60814,-0.7572 1.24099,-0.7572 1.80889,-1.89302 v -5.42665 h -2.10335 q -2.65022,0.042 -4.18567,1.19892 -1.53544,1.13581 -1.53544,3.19709 0,1.93509 0.77823,2.8185 0.77824,0.86236 2.6292,0.86236 z"
       style="font-size:40.7816px;line-height:1;font-family:'Roboto Condensed';-inkscape-font-specification:'Roboto Condensed, Normal';text-align:end;text-anchor:end;fill:#297f76;fill-opacity:1;stroke-width:1.61538"
       id="path7426" />
    <path
       d="m 167.0916,139.25997 q -0.77824,-0.14724 -1.68269,-0.14724 -2.86055,0 -3.99635,3.13399 v 16.27995 h -3.72295 V 135.7684 h 3.61777 l 0.0631,2.31369 q 1.49339,-2.73435 4.22774,-2.73435 0.8834,0 1.47234,0.29447 z"
       style="font-size:40.7816px;line-height:1;font-family:'Roboto Condensed';-inkscape-font-specification:'Roboto Condensed, Normal';text-align:end;text-anchor:end;fill:#297f76;fill-opacity:1;stroke-width:1.61538"
       id="path7428" />
    <path
       d="m 177.39802,152.34282 4.14361,-16.57442 h 3.9543 l -7.44587,25.9764 q -0.84136,2.92366 -2.37679,4.43807 -1.53543,1.53546 -3.49157,1.53546 -0.75721,0 -1.93508,-0.33654 v -3.15503 l 0.8203,0.0841 q 1.61959,0 2.52404,-0.77824 0.92546,-0.75721 1.49335,-2.65022 l 0.7362,-2.54506 -6.68866,-22.56897 h 4.05946 z"
       style="font-size:40.7816px;line-height:1;font-family:'Roboto Condensed';-inkscape-font-specification:'Roboto Condensed, Normal';text-align:end;text-anchor:end;fill:#297f76;fill-opacity:1;stroke-width:1.61538"
       id="path7430" />
    <path
       id="path7432"
       style="font-size:40.7816px;line-height:1;font-family:'Roboto Black';-inkscape-font-specification:'Roboto Black, Normal';text-align:end;text-anchor:end;fill:#297f76;fill-opacity:1;stroke-width:1.61538"
       d="m 20.08965,170.97878 v 30.6247 H 55.7192 v -5.67899 H 27.472761 V 176.67851 H 55.76123 v -5.69973 z m 11.447197,9.23407 v 4.52726 h 24.127764 v -4.52726 z m 0,7.82526 v 4.52725 h 24.127764 v -4.52725 z" />
    <path
       d="m 67.624089,185.11305 3.30226,-6.26799 h 7.36173 l -5.99454,11.08466 6.28901,11.6736 h -7.4038 l -3.5757,-6.73072 -3.51259,6.73072 h -7.445862 l 6.310042,-11.6736 -5.973513,-11.08466 h 7.445873 z"
       style="font-size:40.7816px;line-height:1;font-family:'Roboto Black';-inkscape-font-specification:'Roboto Black, Normal';text-align:end;text-anchor:end;fill:#297f76;fill-opacity:1;stroke-width:1.61538"
       id="path7434" />
    <path
       d="m 101.69839,190.39245 q 0,5.30045 -2.397821,8.47652 -2.37679,3.15502 -6.43625,3.15502 -3.13401,0 -5.15322,-2.29265 v 10.62193 h -7.0883 v -31.50821 h 6.62556 l 0.21034,2.10334 q 2.04024,-2.52401 5.36354,-2.52401 4.20671,0 6.54143,3.11296 2.334721,3.09192 2.334721,8.51857 z m -7.088291,-0.4417 q 0,-6.05765 -3.53364,-6.05765 -2.52403,0 -3.36536,1.80888 v 8.96028 q 0.92547,1.89302 3.40743,1.89302 3.38639,0 3.49157,-5.84732 z"
       style="font-size:40.7816px;line-height:1;font-family:'Roboto Black';-inkscape-font-specification:'Roboto Black, Normal';text-align:end;text-anchor:end;fill:#297f76;fill-opacity:1;stroke-width:1.61538"
       id="path7436" />
    <path
       d="m 118.58832,185.26028 -2.33473,-0.16828 q -3.34434,0 -4.29085,2.10336 v 14.40796 h -7.08828 v -22.75826 h 6.64658 l 0.23138,2.92366 q 1.78784,-3.34433 4.98494,-3.34433 1.13581,0 1.97715,0.25239 z"
       style="font-size:40.7816px;line-height:1;font-family:'Roboto Black';-inkscape-font-specification:'Roboto Black, Normal';text-align:end;text-anchor:end;fill:#297f76;fill-opacity:1;stroke-width:1.61538"
       id="path7438" />
    <path
       d="m 131.75529,202.02399 q -5.23735,0 -8.47651,-3.11296 -3.23916,-3.13399 -3.23916,-8.13997 v -0.58894 q 0,-3.49156 1.28304,-6.16282 1.30407,-2.67125 3.78603,-4.12257 2.48196,-1.47234 5.88938,-1.47234 4.79565,0 7.57207,2.98675 2.77644,2.96574 2.77644,8.28721 v 2.75539 h -14.09247 q 0.3786,1.91405 1.66165,3.0078 1.28304,1.09374 3.32329,1.09374 3.36537,0 5.25839,-2.35575 l 3.23916,3.82809 q -1.32511,1.82992 -3.76501,2.92366 -2.41885,1.07271 -5.2163,1.07271 z m -0.79928,-18.13089 q -3.11296,0 -3.7019,4.12257 h 7.1514 v -0.54687 q 0.042,-1.70371 -0.86238,-2.62919 -0.90444,-0.94651 -2.58712,-0.94651 z"
       style="font-size:40.7816px;line-height:1;font-family:'Roboto Black';-inkscape-font-specification:'Roboto Black, Normal';text-align:end;text-anchor:end;fill:#297f76;fill-opacity:1;stroke-width:1.61538"
       id="path7440" />
    <path
       d="m 156.11211,195.20913 q 0,-0.90444 -0.94651,-1.4513 -0.94651,-0.54688 -3.59673,-1.13582 -2.65023,-0.58894 -4.37497,-1.53545 -1.72475,-0.96753 -2.62919,-2.33471 -0.90444,-1.36718 -0.90444,-3.134 0,-3.13399 2.58712,-5.15321 2.58712,-2.04025 6.77279,-2.04025 4.50118,0 7.23553,2.04025 2.73436,2.04025 2.73436,5.36355 h -7.10933 q 0,-2.73436 -2.8816,-2.73436 -1.11477,0 -1.87197,0.631 -0.75721,0.60997 -0.75721,1.53545 0,0.94651 0.92547,1.53545 0.92548,0.58894 2.9447,0.96754 2.04025,0.3786 3.5757,0.90444 5.13217,1.76681 5.13217,6.33109 0,3.11296 -2.77642,5.06907 -2.7554,1.95612 -7.1514,1.95612 -2.92365,0 -5.21631,-1.05167 -2.29265,-1.05168 -3.5757,-2.86056 -1.28305,-1.80888 -1.28305,-3.80707 h 6.62556 q 0.042,1.57752 1.05168,2.31369 1.00961,0.71514 2.58712,0.71514 1.45131,0 2.16646,-0.58894 0.73617,-0.58894 0.73617,-1.53545 z"
       style="font-size:40.7816px;line-height:1;font-family:'Roboto Black';-inkscape-font-specification:'Roboto Black, Normal';text-align:end;text-anchor:end;fill:#297f76;fill-opacity:1;stroke-width:1.61538"
       id="path7442" />
    <path
       d="m 178.17629,195.20913 q 0,-0.90444 -0.94653,-1.4513 -0.94652,-0.54688 -3.59673,-1.13582 -2.65021,-0.58894 -4.37496,-1.53545 -1.72476,-0.96753 -2.62921,-2.33471 -0.90444,-1.36718 -0.90444,-3.134 0,-3.13399 2.58713,-5.15321 2.58712,-2.04025 6.77281,-2.04025 4.50114,0 7.2355,2.04025 2.73436,2.04025 2.73436,5.36355 h -7.10932 q 0,-2.73436 -2.8816,-2.73436 -1.11478,0 -1.87199,0.631 -0.75721,0.60997 -0.75721,1.53545 0,0.94651 0.92551,1.53545 0.92547,0.58894 2.94469,0.96754 2.04024,0.3786 3.57567,0.90444 5.13217,1.76681 5.13217,6.33109 0,3.11296 -2.77639,5.06907 -2.75542,1.95612 -7.15139,1.95612 -2.92367,0 -5.21632,-1.05167 -2.29267,-1.05168 -3.57571,-2.86056 -1.28305,-1.80888 -1.28305,-3.80707 h 6.62554 q 0.0423,1.57752 1.05169,2.31369 1.00961,0.71514 2.58712,0.71514 1.45133,0 2.16646,-0.58894 0.7362,-0.58894 0.7362,-1.53545 z"
       style="font-size:40.7816px;line-height:1;font-family:'Roboto Black';-inkscape-font-specification:'Roboto Black, Normal';text-align:end;text-anchor:end;fill:#297f76;fill-opacity:1;stroke-width:1.61538"
       id="path7444" />
  </g>
</svg>
